<mxfile host="app.diagrams.net" agent="Mozilla/5.0 (Windows NT 10.0; Win64; x64) AppleWebKit/537.36 (KHTML, like Gecko) Chrome/132.0.0.0 Safari/537.36" version="26.0.6">
  <diagram name="Page-1" id="d66fe2ae-3e9f-cf2f-6d29-e24063ad5d60">
    <mxGraphModel dx="1687" dy="1049" grid="1" gridSize="10" guides="1" tooltips="1" connect="1" arrows="1" fold="1" page="1" pageScale="1" pageWidth="1100" pageHeight="850" background="none" math="0" shadow="0">
      <root>
        <mxCell id="0" />
        <mxCell id="1" parent="0" />
        <mxCell id="3TBpOLbOK-bcbURqcMTr-11" value="" style="rounded=0;whiteSpace=wrap;html=1;" vertex="1" parent="1">
          <mxGeometry x="80" y="30" width="230" height="320" as="geometry" />
        </mxCell>
        <mxCell id="3TBpOLbOK-bcbURqcMTr-1" value="" style="shape=datastore;whiteSpace=wrap;html=1;" vertex="1" parent="1">
          <mxGeometry x="90" y="40" width="60" height="60" as="geometry" />
        </mxCell>
        <mxCell id="3TBpOLbOK-bcbURqcMTr-2" value="" style="shape=datastore;whiteSpace=wrap;html=1;" vertex="1" parent="1">
          <mxGeometry x="90" y="120" width="60" height="60" as="geometry" />
        </mxCell>
        <mxCell id="3TBpOLbOK-bcbURqcMTr-3" value="" style="shape=datastore;whiteSpace=wrap;html=1;" vertex="1" parent="1">
          <mxGeometry x="90" y="200" width="60" height="60" as="geometry" />
        </mxCell>
        <mxCell id="3TBpOLbOK-bcbURqcMTr-4" value="" style="shape=datastore;whiteSpace=wrap;html=1;" vertex="1" parent="1">
          <mxGeometry x="90" y="280" width="60" height="60" as="geometry" />
        </mxCell>
        <mxCell id="3TBpOLbOK-bcbURqcMTr-5" value="Product / Client" style="text;html=1;align=left;verticalAlign=middle;whiteSpace=wrap;rounded=0;" vertex="1" parent="1">
          <mxGeometry x="160" y="40" width="140" height="60" as="geometry" />
        </mxCell>
        <mxCell id="3TBpOLbOK-bcbURqcMTr-6" value="LARS Data" style="text;html=1;align=left;verticalAlign=middle;whiteSpace=wrap;rounded=0;" vertex="1" parent="1">
          <mxGeometry x="160" y="120" width="140" height="60" as="geometry" />
        </mxCell>
        <mxCell id="3TBpOLbOK-bcbURqcMTr-8" value="Client 1" style="text;html=1;align=left;verticalAlign=middle;whiteSpace=wrap;rounded=0;" vertex="1" parent="1">
          <mxGeometry x="160" y="200" width="140" height="60" as="geometry" />
        </mxCell>
        <mxCell id="3TBpOLbOK-bcbURqcMTr-9" value="Client 2" style="text;html=1;align=left;verticalAlign=middle;whiteSpace=wrap;rounded=0;" vertex="1" parent="1">
          <mxGeometry x="160" y="280" width="140" height="60" as="geometry" />
        </mxCell>
        <mxCell id="3TBpOLbOK-bcbURqcMTr-12" value="Postgres Server" style="text;html=1;align=center;verticalAlign=middle;whiteSpace=wrap;rounded=0;" vertex="1" parent="1">
          <mxGeometry x="80" y="350" width="230" height="30" as="geometry" />
        </mxCell>
        <mxCell id="3TBpOLbOK-bcbURqcMTr-13" value="" style="shape=actor;whiteSpace=wrap;html=1;" vertex="1" parent="1">
          <mxGeometry x="780" y="270" width="40" height="60" as="geometry" />
        </mxCell>
        <mxCell id="3TBpOLbOK-bcbURqcMTr-14" value="" style="whiteSpace=wrap;html=1;aspect=fixed;" vertex="1" parent="1">
          <mxGeometry x="520" y="40" width="60" height="60" as="geometry" />
        </mxCell>
        <mxCell id="3TBpOLbOK-bcbURqcMTr-16" value="" style="whiteSpace=wrap;html=1;aspect=fixed;" vertex="1" parent="1">
          <mxGeometry x="520" y="120" width="60" height="60" as="geometry" />
        </mxCell>
        <mxCell id="3TBpOLbOK-bcbURqcMTr-17" value="" style="whiteSpace=wrap;html=1;aspect=fixed;" vertex="1" parent="1">
          <mxGeometry x="520" y="270" width="60" height="60" as="geometry" />
        </mxCell>
        <mxCell id="3TBpOLbOK-bcbURqcMTr-18" value="" style="whiteSpace=wrap;html=1;aspect=fixed;" vertex="1" parent="1">
          <mxGeometry x="390" y="270" width="60" height="60" as="geometry" />
        </mxCell>
        <mxCell id="3TBpOLbOK-bcbURqcMTr-19" value="" style="endArrow=none;dashed=1;html=1;rounded=0;exitX=1;exitY=0.5;exitDx=0;exitDy=0;entryX=0;entryY=0.5;entryDx=0;entryDy=0;" edge="1" parent="1" source="3TBpOLbOK-bcbURqcMTr-5" target="3TBpOLbOK-bcbURqcMTr-14">
          <mxGeometry width="50" height="50" relative="1" as="geometry">
            <mxPoint x="350" y="60" as="sourcePoint" />
            <mxPoint x="810" y="430" as="targetPoint" />
          </mxGeometry>
        </mxCell>
        <mxCell id="3TBpOLbOK-bcbURqcMTr-21" value="" style="endArrow=none;dashed=1;html=1;rounded=0;exitX=1;exitY=0.5;exitDx=0;exitDy=0;entryX=0;entryY=0.5;entryDx=0;entryDy=0;" edge="1" parent="1" source="3TBpOLbOK-bcbURqcMTr-6" target="3TBpOLbOK-bcbURqcMTr-16">
          <mxGeometry width="50" height="50" relative="1" as="geometry">
            <mxPoint x="760" y="480" as="sourcePoint" />
            <mxPoint x="810" y="430" as="targetPoint" />
          </mxGeometry>
        </mxCell>
        <mxCell id="3TBpOLbOK-bcbURqcMTr-22" value="" style="endArrow=none;dashed=1;html=1;rounded=0;exitX=1;exitY=0.5;exitDx=0;exitDy=0;entryX=0;entryY=0.25;entryDx=0;entryDy=0;" edge="1" parent="1" source="3TBpOLbOK-bcbURqcMTr-8" target="3TBpOLbOK-bcbURqcMTr-18">
          <mxGeometry width="50" height="50" relative="1" as="geometry">
            <mxPoint x="760" y="480" as="sourcePoint" />
            <mxPoint x="810" y="430" as="targetPoint" />
          </mxGeometry>
        </mxCell>
        <mxCell id="3TBpOLbOK-bcbURqcMTr-23" value="" style="endArrow=none;dashed=1;html=1;rounded=0;exitX=1;exitY=0.5;exitDx=0;exitDy=0;entryX=0;entryY=0.5;entryDx=0;entryDy=0;" edge="1" parent="1" source="3TBpOLbOK-bcbURqcMTr-9" target="3TBpOLbOK-bcbURqcMTr-18">
          <mxGeometry width="50" height="50" relative="1" as="geometry">
            <mxPoint x="760" y="480" as="sourcePoint" />
            <mxPoint x="810" y="430" as="targetPoint" />
          </mxGeometry>
        </mxCell>
        <mxCell id="3TBpOLbOK-bcbURqcMTr-24" value="" style="endArrow=none;dashed=1;html=1;rounded=0;exitX=1;exitY=0.5;exitDx=0;exitDy=0;entryX=0;entryY=0.5;entryDx=0;entryDy=0;" edge="1" parent="1" source="3TBpOLbOK-bcbURqcMTr-18" target="3TBpOLbOK-bcbURqcMTr-17">
          <mxGeometry width="50" height="50" relative="1" as="geometry">
            <mxPoint x="760" y="480" as="sourcePoint" />
            <mxPoint x="810" y="430" as="targetPoint" />
          </mxGeometry>
        </mxCell>
        <mxCell id="3TBpOLbOK-bcbURqcMTr-25" value="" style="endArrow=none;dashed=1;html=1;rounded=0;exitX=1;exitY=0.5;exitDx=0;exitDy=0;entryX=1;entryY=0.5;entryDx=0;entryDy=0;" edge="1" parent="1" source="3TBpOLbOK-bcbURqcMTr-14" target="3TBpOLbOK-bcbURqcMTr-17">
          <mxGeometry width="50" height="50" relative="1" as="geometry">
            <mxPoint x="760" y="480" as="sourcePoint" />
            <mxPoint x="650" y="70" as="targetPoint" />
            <Array as="points">
              <mxPoint x="660" y="70" />
              <mxPoint x="660" y="300" />
            </Array>
          </mxGeometry>
        </mxCell>
        <mxCell id="3TBpOLbOK-bcbURqcMTr-26" value="" style="endArrow=none;dashed=1;html=1;dashPattern=1 3;strokeWidth=2;rounded=0;entryX=1;entryY=0.5;entryDx=0;entryDy=0;exitX=1;exitY=0.25;exitDx=0;exitDy=0;" edge="1" parent="1" source="3TBpOLbOK-bcbURqcMTr-17" target="3TBpOLbOK-bcbURqcMTr-16">
          <mxGeometry width="50" height="50" relative="1" as="geometry">
            <mxPoint x="760" y="480" as="sourcePoint" />
            <mxPoint x="810" y="430" as="targetPoint" />
            <Array as="points">
              <mxPoint x="640" y="285" />
              <mxPoint x="640" y="150" />
            </Array>
          </mxGeometry>
        </mxCell>
        <mxCell id="3TBpOLbOK-bcbURqcMTr-27" value="" style="shape=actor;whiteSpace=wrap;html=1;" vertex="1" parent="1">
          <mxGeometry x="780" y="120" width="40" height="60" as="geometry" />
        </mxCell>
        <mxCell id="3TBpOLbOK-bcbURqcMTr-28" value="" style="shape=actor;whiteSpace=wrap;html=1;" vertex="1" parent="1">
          <mxGeometry x="780" y="40" width="40" height="60" as="geometry" />
        </mxCell>
        <mxCell id="3TBpOLbOK-bcbURqcMTr-29" value="" style="endArrow=none;html=1;rounded=0;exitX=1;exitY=0.25;exitDx=0;exitDy=0;entryX=0;entryY=0.75;entryDx=0;entryDy=0;" edge="1" parent="1" source="3TBpOLbOK-bcbURqcMTr-14" target="3TBpOLbOK-bcbURqcMTr-28">
          <mxGeometry width="50" height="50" relative="1" as="geometry">
            <mxPoint x="760" y="480" as="sourcePoint" />
            <mxPoint x="810" y="430" as="targetPoint" />
          </mxGeometry>
        </mxCell>
        <mxCell id="3TBpOLbOK-bcbURqcMTr-30" value="" style="endArrow=none;html=1;rounded=0;entryX=0;entryY=0.75;entryDx=0;entryDy=0;" edge="1" parent="1" target="3TBpOLbOK-bcbURqcMTr-13">
          <mxGeometry width="50" height="50" relative="1" as="geometry">
            <mxPoint x="580" y="310" as="sourcePoint" />
            <mxPoint x="810" y="430" as="targetPoint" />
          </mxGeometry>
        </mxCell>
        <mxCell id="3TBpOLbOK-bcbURqcMTr-31" value="" style="endArrow=none;html=1;rounded=0;entryX=0;entryY=0.75;entryDx=0;entryDy=0;" edge="1" parent="1" target="3TBpOLbOK-bcbURqcMTr-27">
          <mxGeometry width="50" height="50" relative="1" as="geometry">
            <mxPoint x="580" y="140" as="sourcePoint" />
            <mxPoint x="630" y="90" as="targetPoint" />
          </mxGeometry>
        </mxCell>
        <mxCell id="3TBpOLbOK-bcbURqcMTr-32" value="Bouncer" style="text;html=1;align=center;verticalAlign=middle;whiteSpace=wrap;rounded=0;" vertex="1" parent="1">
          <mxGeometry x="390" y="285" width="60" height="30" as="geometry" />
        </mxCell>
        <mxCell id="3TBpOLbOK-bcbURqcMTr-33" value="Product / Client App and API" style="text;html=1;align=center;verticalAlign=middle;whiteSpace=wrap;rounded=0;" vertex="1" parent="1">
          <mxGeometry x="520" y="40" width="60" height="60" as="geometry" />
        </mxCell>
        <mxCell id="3TBpOLbOK-bcbURqcMTr-34" value="LARS Data App and API" style="text;html=1;align=center;verticalAlign=middle;whiteSpace=wrap;rounded=0;" vertex="1" parent="1">
          <mxGeometry x="520" y="120" width="60" height="60" as="geometry" />
        </mxCell>
        <mxCell id="3TBpOLbOK-bcbURqcMTr-36" value="Urbi App" style="text;html=1;align=center;verticalAlign=middle;whiteSpace=wrap;rounded=0;" vertex="1" parent="1">
          <mxGeometry x="520" y="270" width="60" height="60" as="geometry" />
        </mxCell>
      </root>
    </mxGraphModel>
  </diagram>
</mxfile>
